<svg width="1280" height="480" viewBox="0 0 1280 480" fill="none" xmlns="http://www.w3.org/2000/svg" role="img" aria-labelledby="title desc">
  <title id="title">Hi-Jiajun profile snapshot</title>
  <desc id="desc">Auto-generated GitHub snapshot showing repository metrics and top languages.</desc>
  <defs>
    <linearGradient id="bg" x1="40" y1="24" x2="1240" y2="456" gradientUnits="userSpaceOnUse">
      <stop stop-color="#08121F"/>
      <stop offset="0.55" stop-color="#0F2236"/>
      <stop offset="1" stop-color="#154F59"/>
    </linearGradient>
    <radialGradient id="glowA" cx="0" cy="0" r="1" gradientUnits="userSpaceOnUse" gradientTransform="translate(280 96) rotate(18) scale(320 180)">
      <stop stop-color="#38BDF8" stop-opacity="0.20"/>
      <stop offset="1" stop-color="#38BDF8" stop-opacity="0"/>
    </radialGradient>
    <radialGradient id="glowB" cx="0" cy="0" r="1" gradientUnits="userSpaceOnUse" gradientTransform="translate(1060 92) rotate(160) scale(340 190)">
      <stop stop-color="#2DD4BF" stop-opacity="0.16"/>
      <stop offset="1" stop-color="#2DD4BF" stop-opacity="0"/>
    </radialGradient>
    <pattern id="grid" x="0" y="0" width="32" height="32" patternUnits="userSpaceOnUse">
      <path d="M32 0H0V32" stroke="white" stroke-opacity="0.04"/>
    </pattern>
  </defs>

  <rect x="8" y="8" width="1264" height="464" rx="28" fill="url(#bg)"/>
  <rect x="8" y="8" width="1264" height="464" rx="28" fill="url(#glowA)"/>
  <rect x="8" y="8" width="1264" height="464" rx="28" fill="url(#glowB)"/>
  <rect x="8" y="8" width="1264" height="464" rx="28" fill="url(#grid)"/>
  <rect x="8.5" y="8.5" width="1263" height="463" rx="27.5" stroke="rgba(255,255,255,0.12)"/>

  <text x="56" y="56" fill="#8DD4FF" font-family="Segoe UI, Arial, sans-serif" font-size="16" font-weight="700" letter-spacing="3">SNAPSHOT / AUTO-GENERATED</text>
  <text x="56" y="86" fill="#F8FAFC" font-family="Segoe UI, Arial, sans-serif" font-size="34" font-weight="700">GitHub activity at a glance</text>
  <text x="56" y="222" fill="#8DD4FF" font-family="Segoe UI, Arial, sans-serif" font-size="16" font-weight="700" letter-spacing="2">TOP LANGUAGES</text>
  <text x="780" y="56" fill="#B9D4E8" font-family="Segoe UI, Arial, sans-serif" font-size="15">Updated from public repository data</text>

  <g transform="translate(56 92)">
    <rect width="165" height="92" rx="18" fill="rgba(255,255,255,0.05)"/>
    <rect x="0.75" y="0.75" width="163.5" height="90.5" rx="17.25" stroke="rgba(255,255,255,0.12)"/>
    <rect x="18" y="18" width="36" height="6" rx="3" fill="#38bdf8"/>
    <text x="18" y="48" fill="#E5F3FF" font-family="Segoe UI, Arial, sans-serif" font-size="28" font-weight="700">29</text>
    <text x="18" y="70" fill="#B9D4E8" font-family="Segoe UI, Arial, sans-serif" font-size="13">Public repos</text>
  </g>
  <g transform="translate(241 92)">
    <rect width="165" height="92" rx="18" fill="rgba(255,255,255,0.05)"/>
    <rect x="0.75" y="0.75" width="163.5" height="90.5" rx="17.25" stroke="rgba(255,255,255,0.12)"/>
    <rect x="18" y="18" width="36" height="6" rx="3" fill="#60a5fa"/>
    <text x="18" y="48" fill="#E5F3FF" font-family="Segoe UI, Arial, sans-serif" font-size="28" font-weight="700">20</text>
    <text x="18" y="70" fill="#B9D4E8" font-family="Segoe UI, Arial, sans-serif" font-size="13">Fork repos</text>
  </g>
  <g transform="translate(426 92)">
    <rect width="165" height="92" rx="18" fill="rgba(255,255,255,0.05)"/>
    <rect x="0.75" y="0.75" width="163.5" height="90.5" rx="17.25" stroke="rgba(255,255,255,0.12)"/>
    <rect x="18" y="18" width="36" height="6" rx="3" fill="#2dd4bf"/>
    <text x="18" y="48" fill="#E5F3FF" font-family="Segoe UI, Arial, sans-serif" font-size="28" font-weight="700">2</text>
    <text x="18" y="70" fill="#B9D4E8" font-family="Segoe UI, Arial, sans-serif" font-size="13">Original work</text>
  </g>
  <g transform="translate(611 92)">
    <rect width="165" height="92" rx="18" fill="rgba(255,255,255,0.05)"/>
    <rect x="0.75" y="0.75" width="163.5" height="90.5" rx="17.25" stroke="rgba(255,255,255,0.12)"/>
    <rect x="18" y="18" width="36" height="6" rx="3" fill="#f59e0b"/>
    <text x="18" y="48" fill="#E5F3FF" font-family="Segoe UI, Arial, sans-serif" font-size="28" font-weight="700">3</text>
    <text x="18" y="70" fill="#B9D4E8" font-family="Segoe UI, Arial, sans-serif" font-size="13">Total stars</text>
  </g>

  <text x="780" y="246" fill="#E5F3FF" font-family="Segoe UI, Arial, sans-serif" font-size="14" font-weight="600">Python</text>
  <text x="1188" y="246" text-anchor="end" fill="#B9D4E8" font-family="Segoe UI, Arial, sans-serif" font-size="13">5 repos</text>
  <rect x="780" y="256" width="420" height="10" rx="5" fill="rgba(255,255,255,0.08)"/>
  <rect x="780" y="256" width="420" height="10" rx="5" fill="#38bdf8"/>
  <text x="780" y="290" fill="#E5F3FF" font-family="Segoe UI, Arial, sans-serif" font-size="14" font-weight="600">TypeScript</text>
  <text x="1188" y="290" text-anchor="end" fill="#B9D4E8" font-family="Segoe UI, Arial, sans-serif" font-size="13">4 repos</text>
  <rect x="780" y="300" width="420" height="10" rx="5" fill="rgba(255,255,255,0.08)"/>
  <rect x="780" y="300" width="336" height="10" rx="5" fill="#2dd4bf"/>
  <text x="780" y="334" fill="#E5F3FF" font-family="Segoe UI, Arial, sans-serif" font-size="14" font-weight="600">C</text>
  <text x="1188" y="334" text-anchor="end" fill="#B9D4E8" font-family="Segoe UI, Arial, sans-serif" font-size="13">3 repos</text>
  <rect x="780" y="344" width="420" height="10" rx="5" fill="rgba(255,255,255,0.08)"/>
  <rect x="780" y="344" width="252" height="10" rx="5" fill="#f59e0b"/>
  <text x="780" y="378" fill="#E5F3FF" font-family="Segoe UI, Arial, sans-serif" font-size="14" font-weight="600">PowerShell</text>
  <text x="1188" y="378" text-anchor="end" fill="#B9D4E8" font-family="Segoe UI, Arial, sans-serif" font-size="13">3 repos</text>
  <rect x="780" y="388" width="420" height="10" rx="5" fill="rgba(255,255,255,0.08)"/>
  <rect x="780" y="388" width="252" height="10" rx="5" fill="#a78bfa"/>
  <text x="780" y="422" fill="#E5F3FF" font-family="Segoe UI, Arial, sans-serif" font-size="14" font-weight="600">JavaScript</text>
  <text x="1188" y="422" text-anchor="end" fill="#B9D4E8" font-family="Segoe UI, Arial, sans-serif" font-size="13">1 repos</text>
  <rect x="780" y="432" width="420" height="10" rx="5" fill="rgba(255,255,255,0.08)"/>
  <rect x="780" y="432" width="84" height="10" rx="5" fill="#f472b6"/>
  <text x="56" y="430" fill="#B9D4E8" font-family="Segoe UI, Arial, sans-serif" font-size="13">Generated by scripts/generate_readme.py</text>
  <text x="1224" y="430" text-anchor="end" fill="#B9D4E8" font-family="Segoe UI, Arial, sans-serif" font-size="13">2026-03-27 UTC</text>
</svg>
